<?xml version="1.0" encoding="utf-8"?>
<!-- Svg Vector Icons : http://www.onlinewebfonts.com/icon -->
<!DOCTYPE svg PUBLIC "-//W3C//DTD SVG 1.1//EN" "http://www.w3.org/Graphics/SVG/1.1/DTD/svg11.dtd">
<svg version="1.1" xmlns="http://www.w3.org/2000/svg" xmlns:xlink="http://www.w3.org/1999/xlink" x="0px" y="0px" viewBox="0 0 1000 1000" enable-background="new 0 0 1000 1000" xml:space="preserve">
<metadata> Svg Vector Icons : http://www.onlinewebfonts.com/icon </metadata>
<g><g><path d="M426.1,125.8l29.8-34.5c-72.5-36.7-148.7-64.5-224.5-80.7c-26.9-5.7-41.3,34.9-14.2,40.7C289.3,66.7,359.5,92.4,426.1,125.8z"/><path d="M966.4,815.4c-3-164.9-95.7-349.7-200.4-478.4l-28.5,32.9c37.1,46.4,68.3,97.3,95.1,150.8c43.2,86.2,89,194.2,90.8,291.8C923.9,840.1,966.9,843.2,966.4,815.4z"/><path d="M607.2,385.8l28.6-33.1c-50.2-51.2-108-97.7-170.5-137.4l-29.8,34.5c61.1,38.8,118,83.8,169.2,133.4C605.6,384.1,606.3,385,607.2,385.8z"/><path d="M139.9,126.2c75.3,16.1,148.5,43.3,217.7,78.9l29.8-34.4c-75.1-38.9-154.3-68.3-233.2-85.2C127.3,79.7,112.8,120.4,139.9,126.2z"/><path d="M829.4,780.4c9.7,36,16,72.2,16.7,107c0.5,27.6,43.5,30.7,43,2.9c-3-161.7-92.2-342.5-194.4-470.9l-28.5,33c24.1,31,45.5,63.9,64.9,98.2c15.7,0,30.5,7.1,40.8,19.4c44.4,53.1,92.2,129.5,67.4,192.2C836.9,768.7,833.4,774.7,829.4,780.4z"/><path d="M600.5,528.5c-1.3,1.6-2.6,3.1-3.9,4.6l-11.7,13.5c19.6,26.5,37.4,54.3,53.8,83.1l30.5-35.8c-17.7-28.3-36.3-55.3-55.6-80.4l-12.5,14.4L600.5,528.5z"/><path d="M719,739.4c0.4-5.1-2.2-11.7-7.3-19.1c-5.4,6.3-11.4,13.3-17.5,20.5c2.9,6.5,5.7,13,8.4,19.6C712.4,753.3,718.5,745.7,719,739.4z"/><path d="M48.1,206.5c30,6.4,59.6,14.7,88.8,24.4c16.2-12.3,35.6-21.1,56.8-25.8c-43.4-16.6-87.4-30-131.4-39.4C35.5,160,21,200.7,48.1,206.5z"/><path d="M729.4,832.7c14.4,45.2,24.1,91.1,24.9,135c0.5,27.6,43.5,30.7,43,2.9c-0.9-48.6-9.8-98.9-24.3-149.1C760.2,826.4,745.6,830.1,729.4,832.7z"/><path d="M358.1,339.4c20.4,13.5,40.4,27.7,59.8,42.5c14.7-8.7,31.5-15.1,49.8-18.5c-25.5-20.7-52.2-40.2-79.9-58.4L358.1,339.4z"/><path d="M488.5,545c3.1,0,6.3-0.1,9.5-0.3c26.1-1.9,49.1-11.5,65.8-25.4c4.7-4,9.1-8.2,12.7-12.8l0,0l16.5-19.1l52.4-60.7l28.4-32.8l42.6-49.3l27.5-31.8l0.9-1.1l58.4-67.6L497.9,96.6l-2.1-1.8l-10.4,12l-29.8,34.5l-39,45.1l-29.7,34.4l-47,54.4l-17.6,20.4c-6.9-35.8-46.4-61.8-93.7-61.8c-3.1,0-6.3,0.1-9.5,0.3c-15.5,1.1-30,5-42.7,10.9c-31.9,14.7-52.7,42-50.5,71.9c2.9,39.3,44.4,68.7,94.7,68.7c3.1,0,6.3-0.1,9.5-0.3c28.3-2.1,53.1-13.1,70.1-29.1l0.3,0.2l2.8-3.3c2.3-2.4,4.4-4.8,6.4-7.4l20.8-24l29.7-34.4l47.3-54.7l29.9-34.6l20.4-23.7l162.2,78.5l102.4,49.5l-21.6,25l-42.4,49.1l-28.3,32.7l-39.7,45.9c-6.5-34.1-42.8-59.1-87.2-61.5c-2.2-0.1-4.3-0.5-6.6-0.5c-3.1,0-6.3,0.1-9.5,0.3c-15,1.1-28.9,4.7-41.3,10.3c-32.7,14.5-54.1,42.2-51.9,72.5C396.7,515.6,438.2,545,488.5,545z"/><path d="M762.7,610.5c-5.6-7.4-10.9-14.1-15.6-19.7c-4.4-5.2-10.2-7.7-16.1-7.7c-6.1,0-12.2,2.7-16.8,8.1l-27.3,32.1l-31.5,37L621.5,700c-4.2-7.5-9.7-14.4-16.7-20.3c-14.2-12.1-31.5-18-48.7-18c-21.3,0-42.4,9-57.3,26.4c-26.9,31.6-23.1,79.1,8.5,106c14.1,12,31.5,17.9,48.7,17.9c11,0,21.9-2.4,32-7.1c12.5-5.9,27.9-22.6,36.9-33.1c14.6-17.1,36.5-42.6,54.4-63.7c17.3-20.3,31-36.4,31-36.4c2.1,1.8,3.7,3.4,5.6,5.2c33.3,30.5,39.5,55.4,33.4,75c-5.5,17.6-20.6,30.8-34.3,39.5c-1.1,0.7-2.2,1.4-3.2,2c-9.9,5.9-11.1,9.2-3.4,9.2c1.6,0,3.5-0.1,5.9-0.4c1.6-0.2,3-0.5,4.5-0.7c17.7-2.5,32.5-6.2,44.6-11c35-13.7,48.8-36,50.1-61.2C815.5,689.7,786.9,642.7,762.7,610.5z"/></g><g></g><g></g><g></g><g></g><g></g><g></g><g></g><g></g><g></g><g></g><g></g><g></g><g></g><g></g><g></g></g>
</svg>